<svg t="1579173215799" class="icon" viewBox="0 0 1024 1024" version="1.1" xmlns="http://www.w3.org/2000/svg" p-id="8315" width="200" height="200"><path d="M890.88 208.896h-79.872V169.984c0-57.344-45.056-102.4-102.4-102.4H317.44c-57.344 0-102.4 45.056-102.4 102.4v36.864H129.024c-30.72 0-57.344 24.576-57.344 57.344V307.2c0 81.92 63.488 149.504 143.36 157.696 14.336 143.36 133.12 256 278.528 262.144v186.368H221.184c-12.288 0-20.48 8.192-20.48 20.48s8.192 20.48 20.48 20.48h585.728c12.288 0 20.48-8.192 20.48-20.48s-8.192-20.48-20.48-20.48H534.528v-186.368c143.36-8.192 260.096-120.832 274.432-262.144 79.872-8.192 143.36-75.776 143.36-157.696v-36.864c0-34.816-28.672-61.44-61.44-61.44zM112.64 307.2v-43.008c0-8.192 6.144-16.384 16.384-16.384h86.016v174.08c-57.344-6.144-102.4-55.296-102.4-114.688z m405.504 380.928h-12.288c-139.264 0-249.856-112.64-249.856-249.856V169.984c0-34.816 26.624-61.44 61.44-61.44h391.168c34.816 0 61.44 26.624 61.44 61.44v266.24c-2.048 139.264-114.688 251.904-251.904 251.904zM911.36 307.2c0 59.392-43.008 108.544-100.352 116.736v-174.08h79.872c12.288 0 20.48 8.192 20.48 20.48V307.2z" p-id="8316" fill="#bfbfbf"></path></svg>