<svg t="1582251634800" class="icon" viewBox="0 0 1024 1024" version="1.1" xmlns="http://www.w3.org/2000/svg" p-id="2140" width="200" height="200"><path d="M505.81210466 1007.03215332c-268.8536609 0-487.61733332-218.76367227-487.61735521-487.61733311s218.76367227-487.61733332 487.61735521-487.61735574 487.61733332 218.76367227 487.61733309 487.61735574-218.76367227 487.61733332-487.61733309 487.61733311z m0-944.98864829c-252.26369599 0-457.37129284 205.21429442-457.37131486 457.37131518 0 252.26369599 205.16095692 457.37129284 457.37131486 457.37129284s457.37129284-205.16095692 457.37129272-457.37129284c0.05333795-252.15699813-205.16095692-457.37129284-457.37129272-457.37131518z" p-id="2141" fill="#cdcdcd"></path><path d="M463.29694921 715.45394733h58.62503619v61.02552563h-58.62503619zM614.20708077 297.82391131c-27.52550173-23.09795381-62.25242796-35.42040638-110.15532297-35.42040626-21.65765552 0-45.02232075 2.50716514-69.29383909 7.36148236a400.61330189 400.61330189 0 0 0-56.65131567 15.04299129v57.93155559c12.53582614-7.14808703 28.75240449-14.1894978 48.22296582-21.07087311 22.83122054-8.00160242 47.31611233-12.16241725 72.81453391-12.16241727 29.12581339 0 53.29063394 6.88137555 71.96104011 20.43075294 19.20382838 13.92278688 29.01911547 35.20703327 29.01911553 63.26595749 0 20.85749985-4.000801 38.3543189-11.94904375 52.01037197-7.68153116 13.3360042-18.56370835 26.3519371-32.32645893 38.78108695a247.72945012 247.72945012 0 0 1-43.74205807 31.52628145c-16.32325381 9.49523856-31.52630325 18.29699641-45.66246312 26.35193687v96.12586081h49.98331375v-75.42839653l3.04060981-1.70700956c18.7237438-10.72214115 36.70066919-21.97772674 53.29063396-33.33998823 16.42995186-11.25558569 31.15289424-23.47136274 43.74205831-36.32726004a164.29947325 164.29947325 0 0 0 30.67280892-45.23569392c5.54777502-11.89570583 7.89490508-36.27390038 7.89490501-57.93155595-0.05333795-38.03426939-13.3360042-67.05338508-40.86148353-90.20467685z" p-id="2142" fill="#cdcdcd"></path></svg>