<svg t="1582082322171" class="icon" viewBox="0 0 1024 1024" version="1.1" xmlns="http://www.w3.org/2000/svg" p-id="5706" width="200" height="200"><path d="M903.964073 994.632678c-151.216693-151.232949-302.444224-302.449643-453.662724-453.668143-15.992267-16.006717-15.992267-41.934997 0-57.92907 151.216693-151.231143 302.44603-302.449643 453.662724-453.668143 14.988009-15.000653 39.315979-15.000653 54.302182 0 15.000653 14.988009 15.000653 39.303336 0 54.303988-142.77623 142.778036-285.55246 285.543429-428.31424 428.321465 142.763586 142.779842 285.53801 285.557878 428.31424 428.335915 15.000653 14.988009 15.000653 39.301529 0 54.303988-14.988009 15.000653-39.314173 15.000653-54.302182 0z" fill="#bfbfbf" p-id="5707"></path><path d="M520.149662 994.632678a11936898.605923 11936898.605923 0 0 1-453.675367-453.668143c-15.992267-15.992267-15.992267-41.934997 0-57.92907C217.703632 331.818771 368.918519 180.585822 520.149662 29.369128c14.986203-15.000653 39.301529-15.000653 54.302182 0 15.002459 15.002459 15.002459 39.303336 0 54.303989A13680304.839723 13680304.839723 0 0 1 146.123155 511.992775l428.328689 428.335915c15.002459 15.002459 15.002459 39.315979 0 54.303988-15.000653 15.000653-39.315979 15.000653-54.302182 0z" fill="#bfbfbf" p-id="5708"></path></svg>