<svg t="1582180053143" class="icon" viewBox="0 0 1024 1024" version="1.1" xmlns="http://www.w3.org/2000/svg" p-id="5261" width="200" height="200"><path d="M199.68 445.44H819.2c5.12 0 15.36 0 20.48-5.12 5.12-10.24 10.24-15.36 10.24-25.6 0-5.12-10.24-15.36-20.48-25.6 0 0-179.2-168.96-286.72-276.48 0 0-10.24-10.24-30.72-10.24-10.24 0-20.48 0-35.84 15.36l-291.84 281.6c-5.12 5.12-10.24 15.36-10.24 20.48 0 10.24 10.24 25.6 25.6 25.6zM824.32 578.56H204.8c-5.12 0-15.36 5.12-20.48 5.12-5.12 10.24-10.24 15.36-10.24 25.6 0 5.12 10.24 15.36 20.48 25.6 0 0 179.2 168.96 286.72 276.48 0 0 10.24 10.24 30.72 10.24 10.24 0 20.48 0 35.84-15.36l291.84-281.6c5.12-5.12 10.24-15.36 10.24-20.48 0-10.24-10.24-25.6-25.6-25.6z" p-id="5262" fill="#cdcdcd"></path></svg>