<svg t="1579147079136" class="icon" viewBox="0 0 1024 1024" version="1.1" xmlns="http://www.w3.org/2000/svg" p-id="5223" width="200" height="200"><path d="M704 429.714286l-312.685714-340.114286a53.394286 53.394286 0 0 0-36.571429-16.457143 52.297143 52.297143 0 0 0-38.4 16.457143 53.028571 53.028571 0 0 0 0 76.8l312.685714 340.114286c5.485714 5.485714 5.485714 10.971429 0 10.971428l-318.171428 340.114286A52.297143 52.297143 0 0 0 292.571429 896a53.394286 53.394286 0 0 0 16.457142 38.4A73.142857 73.142857 0 0 0 347.428571 950.857143a50.834286 50.834286 0 0 0 38.4-16.457143l312.685715-340.114286a106.422857 106.422857 0 0 0 5.485714-164.571428z" p-id="5224" fill="#ffffff"></path></svg>