<?xml version="1.0" standalone="no"?><!DOCTYPE svg PUBLIC "-//W3C//DTD SVG 1.1//EN" "http://www.w3.org/Graphics/SVG/1.1/DTD/svg11.dtd"><svg t="1532492711313" class="icon" style="" viewBox="0 0 1024 1024" version="1.1" xmlns="http://www.w3.org/2000/svg" p-id="1974" xmlns:xlink="http://www.w3.org/1999/xlink" width="32" height="32"><defs><style type="text/css"></style></defs><path d="M950.738179 821.087558 738.22933 1016.822523C733.272509 1021.382798 726.729505 1023.920691 719.988228 1023.920691L149.715835 1023.920691C103.121713 1023.920691 65.211943 986.169539 65.211943 939.77369L65.211943 84.384928C65.211943 37.98908 103.121713 0.277582 149.715835 0.277582L874.878984 0.277582C921.473105 0.277582 959.343221 37.98908 959.343221 84.384928L959.343221 801.458545C959.343221 808.913604 956.250165 816.051427 950.738179 821.087558ZM905.611277 84.384928C905.611277 67.492081 891.811486 53.771599 874.878984 53.771599L149.715835 53.771599C132.783333 53.771599 118.943887 67.492081 118.943887 84.384928L118.943887 939.77369C118.943887 956.666538 132.783333 970.387019 149.715835 970.387019L709.440112 970.387019 905.611277 789.760446 905.611277 84.384928ZM687.986988 941.756419C673.116524 941.756419 661.101189 929.780738 661.101189 914.989583L661.101189 746.695581C661.101189 731.904426 673.116524 719.928746 687.986988 719.928746L861.872284 719.928746C876.742749 719.928746 888.758084 731.904426 888.758084 746.695581 888.758084 761.486737 876.742749 773.462417 861.872284 773.462417L714.872788 773.462417 714.872788 914.989583C714.872788 929.780738 702.817798 941.756419 687.986988 941.756419ZM717.569299 577.370561C717.529644 577.370561 717.48999 577.370561 717.48999 577.370561L306.946211 576.299888C292.115401 576.220579 280.100066 564.244898 280.179375 549.453743 280.21903 534.741897 292.234365 522.766216 307.02552 522.766216 307.065174 522.766216 307.104829 522.766216 307.104829 522.766216L717.648608 523.876544C732.479418 523.916199 744.494753 535.931534 744.455098 550.722689 744.375789 565.434535 732.360454 577.370561 717.569299 577.370561ZM717.569299 417.800565C717.529644 417.800565 717.48999 417.800565 717.48999 417.800565L306.946211 416.690237C292.115401 416.650583 280.100066 404.635248 280.179375 389.844092 280.21903 375.132246 292.234365 363.19622 307.02552 363.19622 307.065174 363.19622 307.104829 363.19622 307.104829 363.19622L717.648608 364.266894C732.479418 364.346203 744.494753 376.321884 744.455098 391.113039 744.375789 405.864539 732.360454 417.800565 717.569299 417.800565ZM717.569299 258.746079C717.529644 258.746079 717.48999 258.746079 717.48999 258.746079L306.946211 257.635751C292.115401 257.596097 280.100066 245.580761 280.179375 230.829261 280.21903 216.07776 292.234365 204.141734 307.02552 204.141734 307.065174 204.141734 307.104829 204.141734 307.104829 204.141734L717.648608 205.252062C732.479418 205.291717 744.494753 217.267397 744.455098 232.058552 744.375789 246.810053 732.360454 258.746079 717.569299 258.746079Z" p-id="1975" fill="#ffffff"></path></svg>