<svg t="1579173613383" class="icon" viewBox="0 0 1024 1024" version="1.1" xmlns="http://www.w3.org/2000/svg" p-id="9262" width="200" height="200"><path d="M520.533333 256c-98.133333 0-157.866667 64-157.866666 170.666667 0 10.666667 8.533333 21.333333 21.333333 21.333333 10.666667 0 21.333333-8.533333 21.333333-21.333333 0-49.066667 14.933333-130.133333 115.2-130.133334 59.733333 0 100.266667 38.4 100.266667 91.733334 0 34.133333-17.066667 68.266667-46.933333 89.6-68.266667 59.733333-98.133333 96-98.133334 187.733333 0 10.666667 8.533333 21.333333 21.333334 21.333333 10.666667 0 21.333333-8.533333 21.333333-21.333333 0-72.533333 17.066667-98.133333 83.2-155.733333 38.4-27.733333 61.866667-74.666667 61.866667-121.6-2.133333-76.8-61.866667-132.266667-142.933334-132.266667zM512 0C228.266667 0 0 228.266667 0 512s228.266667 512 512 512 512-228.266667 512-512S795.733333 0 512 0z m0 981.333333C251.733333 981.333333 42.666667 772.266667 42.666667 512S251.733333 42.666667 512 42.666667s469.333333 209.066667 469.333333 469.333333-209.066667 469.333333-469.333333 469.333333z m-14.933333-253.866666c-10.666667 0-21.333333 8.533333-21.333334 21.333333 0 10.666667 8.533333 21.333333 21.333334 21.333333 10.666667 0 21.333333-8.533333 21.333333-21.333333s-10.666667-21.333333-21.333333-21.333333z" fill="#cdcdcd" p-id="9263"></path></svg>